<mxfile host="app.diagrams.net" modified="2024-02-21T17:49:45.896Z" agent="Mozilla/5.0 (Windows NT 10.0; Win64; x64) AppleWebKit/537.36 (KHTML, like Gecko) Chrome/120.0.0.0 YaBrowser/24.1.0.0 Safari/537.36" etag="gOn75hwHifoHXOsQay7B" version="23.1.5" type="github">
  <diagram name="Страница — 1" id="V9Lks-iFm13B6xGhw_PS">
    <mxGraphModel dx="1313" dy="719" grid="1" gridSize="10" guides="1" tooltips="1" connect="1" arrows="1" fold="1" page="1" pageScale="1" pageWidth="827" pageHeight="1169" math="0" shadow="0">
      <root>
        <mxCell id="0" />
        <mxCell id="1" parent="0" />
        <mxCell id="3xNHF6fkVYd2pbTYoH_k-2" value="Админ" style="shape=umlActor;verticalLabelPosition=bottom;verticalAlign=top;html=1;outlineConnect=0;" vertex="1" parent="1">
          <mxGeometry x="630" y="300" width="30" height="60" as="geometry" />
        </mxCell>
        <mxCell id="3xNHF6fkVYd2pbTYoH_k-43" value="" style="edgeStyle=orthogonalEdgeStyle;rounded=0;orthogonalLoop=1;jettySize=auto;html=1;" edge="1" parent="1" source="3xNHF6fkVYd2pbTYoH_k-3" target="3xNHF6fkVYd2pbTYoH_k-4">
          <mxGeometry relative="1" as="geometry" />
        </mxCell>
        <mxCell id="3xNHF6fkVYd2pbTYoH_k-3" value="Войти в&amp;nbsp;&lt;br&gt;систему" style="ellipse;whiteSpace=wrap;html=1;" vertex="1" parent="1">
          <mxGeometry x="444" y="190" width="70" height="50" as="geometry" />
        </mxCell>
        <mxCell id="3xNHF6fkVYd2pbTYoH_k-4" value="Зарегистрироваться" style="ellipse;whiteSpace=wrap;html=1;" vertex="1" parent="1">
          <mxGeometry x="414" y="130" width="130" height="30" as="geometry" />
        </mxCell>
        <mxCell id="3xNHF6fkVYd2pbTYoH_k-5" value="Посмотреть меню" style="ellipse;whiteSpace=wrap;html=1;" vertex="1" parent="1">
          <mxGeometry x="230" y="320" width="90" height="40" as="geometry" />
        </mxCell>
        <mxCell id="3xNHF6fkVYd2pbTYoH_k-6" value="Добавить блюдо в заказ" style="ellipse;whiteSpace=wrap;html=1;" vertex="1" parent="1">
          <mxGeometry x="223.5" y="150" width="110" height="40" as="geometry" />
        </mxCell>
        <mxCell id="3xNHF6fkVYd2pbTYoH_k-7" value="Сделать заказ" style="ellipse;whiteSpace=wrap;html=1;" vertex="1" parent="1">
          <mxGeometry x="230" y="230" width="97" height="40" as="geometry" />
        </mxCell>
        <mxCell id="3xNHF6fkVYd2pbTYoH_k-8" value="Отменить заказ" style="ellipse;whiteSpace=wrap;html=1;" vertex="1" parent="1">
          <mxGeometry x="230" y="400" width="91.5" height="30" as="geometry" />
        </mxCell>
        <mxCell id="3xNHF6fkVYd2pbTYoH_k-9" value="Оплатить заказ" style="ellipse;whiteSpace=wrap;html=1;" vertex="1" parent="1">
          <mxGeometry x="223.5" y="460" width="100" height="30" as="geometry" />
        </mxCell>
        <mxCell id="3xNHF6fkVYd2pbTYoH_k-19" value="include" style="endArrow=open;endSize=12;dashed=1;html=1;rounded=0;" edge="1" parent="1" target="3xNHF6fkVYd2pbTYoH_k-3">
          <mxGeometry width="160" relative="1" as="geometry">
            <mxPoint x="320" y="340.8" as="sourcePoint" />
            <mxPoint x="430.43000000000006" y="339.2" as="targetPoint" />
          </mxGeometry>
        </mxCell>
        <mxCell id="3xNHF6fkVYd2pbTYoH_k-21" value="include" style="endArrow=open;endSize=12;dashed=1;html=1;rounded=0;exitX=0.5;exitY=1;exitDx=0;exitDy=0;" edge="1" parent="1" source="3xNHF6fkVYd2pbTYoH_k-7">
          <mxGeometry width="160" relative="1" as="geometry">
            <mxPoint x="337" y="290" as="sourcePoint" />
            <mxPoint x="279" y="320" as="targetPoint" />
          </mxGeometry>
        </mxCell>
        <mxCell id="3xNHF6fkVYd2pbTYoH_k-22" value="include" style="endArrow=open;endSize=12;dashed=1;html=1;rounded=0;entryX=0.5;entryY=0;entryDx=0;entryDy=0;exitX=0.5;exitY=1;exitDx=0;exitDy=0;" edge="1" parent="1" source="3xNHF6fkVYd2pbTYoH_k-6" target="3xNHF6fkVYd2pbTYoH_k-7">
          <mxGeometry width="160" relative="1" as="geometry">
            <mxPoint x="347" y="300" as="sourcePoint" />
            <mxPoint x="470" y="238" as="targetPoint" />
          </mxGeometry>
        </mxCell>
        <mxCell id="3xNHF6fkVYd2pbTYoH_k-23" value="expansion" style="endArrow=open;endSize=12;dashed=1;html=1;rounded=0;entryX=0.5;entryY=1;entryDx=0;entryDy=0;" edge="1" parent="1" source="3xNHF6fkVYd2pbTYoH_k-3" target="3xNHF6fkVYd2pbTYoH_k-4">
          <mxGeometry width="160" relative="1" as="geometry">
            <mxPoint x="330" y="350.8" as="sourcePoint" />
            <mxPoint x="465" y="244" as="targetPoint" />
          </mxGeometry>
        </mxCell>
        <mxCell id="3xNHF6fkVYd2pbTYoH_k-25" value="include" style="endArrow=open;endSize=12;dashed=1;html=1;rounded=0;exitX=0;exitY=0.5;exitDx=0;exitDy=0;" edge="1" parent="1" source="3xNHF6fkVYd2pbTYoH_k-8">
          <mxGeometry width="160" relative="1" as="geometry">
            <mxPoint x="220" y="410" as="sourcePoint" />
            <mxPoint x="220" y="170" as="targetPoint" />
            <Array as="points">
              <mxPoint x="160" y="415" />
              <mxPoint x="160" y="170" />
            </Array>
          </mxGeometry>
        </mxCell>
        <mxCell id="3xNHF6fkVYd2pbTYoH_k-27" value="" style="endArrow=none;dashed=1;html=1;rounded=0;exitX=0;exitY=0.5;exitDx=0;exitDy=0;" edge="1" parent="1" source="3xNHF6fkVYd2pbTYoH_k-9">
          <mxGeometry width="50" height="50" relative="1" as="geometry">
            <mxPoint x="410" y="360" as="sourcePoint" />
            <mxPoint x="160" y="420" as="targetPoint" />
            <Array as="points">
              <mxPoint x="160" y="475" />
            </Array>
          </mxGeometry>
        </mxCell>
        <mxCell id="3xNHF6fkVYd2pbTYoH_k-28" value="Пользователь" style="shape=umlActor;verticalLabelPosition=bottom;verticalAlign=top;html=1;outlineConnect=0;" vertex="1" parent="1">
          <mxGeometry x="60" y="300" width="30" height="60" as="geometry" />
        </mxCell>
        <mxCell id="3xNHF6fkVYd2pbTYoH_k-29" value="" style="endArrow=none;html=1;rounded=0;entryX=0;entryY=0;entryDx=0;entryDy=0;" edge="1" parent="1" source="3xNHF6fkVYd2pbTYoH_k-28" target="3xNHF6fkVYd2pbTYoH_k-9">
          <mxGeometry width="50" height="50" relative="1" as="geometry">
            <mxPoint x="410" y="300" as="sourcePoint" />
            <mxPoint x="460" y="250" as="targetPoint" />
          </mxGeometry>
        </mxCell>
        <mxCell id="3xNHF6fkVYd2pbTYoH_k-31" value="" style="endArrow=none;html=1;rounded=0;entryX=0.087;entryY=0.227;entryDx=0;entryDy=0;entryPerimeter=0;" edge="1" parent="1" target="3xNHF6fkVYd2pbTYoH_k-8">
          <mxGeometry width="50" height="50" relative="1" as="geometry">
            <mxPoint x="90" y="340" as="sourcePoint" />
            <mxPoint x="248" y="474" as="targetPoint" />
          </mxGeometry>
        </mxCell>
        <mxCell id="3xNHF6fkVYd2pbTYoH_k-32" value="" style="endArrow=none;html=1;rounded=0;entryX=0;entryY=0.5;entryDx=0;entryDy=0;" edge="1" parent="1" target="3xNHF6fkVYd2pbTYoH_k-5">
          <mxGeometry width="50" height="50" relative="1" as="geometry">
            <mxPoint x="90" y="340" as="sourcePoint" />
            <mxPoint x="248" y="417" as="targetPoint" />
          </mxGeometry>
        </mxCell>
        <mxCell id="3xNHF6fkVYd2pbTYoH_k-33" value="" style="endArrow=none;html=1;rounded=0;entryX=-0.025;entryY=0.3;entryDx=0;entryDy=0;entryPerimeter=0;" edge="1" parent="1" target="3xNHF6fkVYd2pbTYoH_k-7">
          <mxGeometry width="50" height="50" relative="1" as="geometry">
            <mxPoint x="100" y="340" as="sourcePoint" />
            <mxPoint x="258" y="427" as="targetPoint" />
          </mxGeometry>
        </mxCell>
        <mxCell id="3xNHF6fkVYd2pbTYoH_k-34" value="" style="endArrow=none;html=1;rounded=0;entryX=0;entryY=1;entryDx=0;entryDy=0;" edge="1" parent="1" target="3xNHF6fkVYd2pbTYoH_k-6">
          <mxGeometry width="50" height="50" relative="1" as="geometry">
            <mxPoint x="90" y="340" as="sourcePoint" />
            <mxPoint x="268" y="437" as="targetPoint" />
          </mxGeometry>
        </mxCell>
        <mxCell id="3xNHF6fkVYd2pbTYoH_k-35" value="Изменить меню" style="ellipse;whiteSpace=wrap;html=1;" vertex="1" parent="1">
          <mxGeometry x="460" y="320" width="80" height="40" as="geometry" />
        </mxCell>
        <mxCell id="3xNHF6fkVYd2pbTYoH_k-37" value="include" style="endArrow=open;endSize=12;dashed=1;html=1;rounded=0;exitX=0.5;exitY=0;exitDx=0;exitDy=0;entryX=0.5;entryY=1;entryDx=0;entryDy=0;" edge="1" parent="1" source="3xNHF6fkVYd2pbTYoH_k-35" target="3xNHF6fkVYd2pbTYoH_k-3">
          <mxGeometry width="160" relative="1" as="geometry">
            <mxPoint x="330" y="350.8" as="sourcePoint" />
            <mxPoint x="465" y="244" as="targetPoint" />
          </mxGeometry>
        </mxCell>
        <mxCell id="3xNHF6fkVYd2pbTYoH_k-39" value="" style="endArrow=none;html=1;rounded=0;entryX=0;entryY=0.5;entryDx=0;entryDy=0;" edge="1" parent="1">
          <mxGeometry width="50" height="50" relative="1" as="geometry">
            <mxPoint x="320" y="339.5" as="sourcePoint" />
            <mxPoint x="460" y="339.5" as="targetPoint" />
          </mxGeometry>
        </mxCell>
        <mxCell id="3xNHF6fkVYd2pbTYoH_k-40" value="&lt;b&gt;&lt;font color=&quot;#00b8a2&quot; style=&quot;font-size: 9px;&quot;&gt;connected in real time&lt;/font&gt;&lt;/b&gt;" style="edgeLabel;html=1;align=center;verticalAlign=middle;resizable=0;points=[];" vertex="1" connectable="0" parent="3xNHF6fkVYd2pbTYoH_k-39">
          <mxGeometry x="0.2514" y="2" relative="1" as="geometry">
            <mxPoint x="-18" y="3" as="offset" />
          </mxGeometry>
        </mxCell>
        <mxCell id="3xNHF6fkVYd2pbTYoH_k-41" value="Оставить отзыв" style="ellipse;whiteSpace=wrap;html=1;" vertex="1" parent="1">
          <mxGeometry x="224.5" y="530" width="95.5" height="40" as="geometry" />
        </mxCell>
        <mxCell id="3xNHF6fkVYd2pbTYoH_k-44" value="expansion" style="endArrow=open;endSize=12;dashed=1;html=1;rounded=0;entryX=0.495;entryY=-0.089;entryDx=0;entryDy=0;entryPerimeter=0;" edge="1" parent="1" target="3xNHF6fkVYd2pbTYoH_k-41">
          <mxGeometry width="160" relative="1" as="geometry">
            <mxPoint x="271.97" y="490" as="sourcePoint" />
            <mxPoint x="271.9599999999999" y="521.0500000000001" as="targetPoint" />
          </mxGeometry>
        </mxCell>
        <mxCell id="3xNHF6fkVYd2pbTYoH_k-49" value="" style="endArrow=none;html=1;rounded=0;entryX=0;entryY=0.5;entryDx=0;entryDy=0;" edge="1" parent="1" target="3xNHF6fkVYd2pbTYoH_k-41">
          <mxGeometry width="50" height="50" relative="1" as="geometry">
            <mxPoint x="90" y="350" as="sourcePoint" />
            <mxPoint x="390" y="360" as="targetPoint" />
          </mxGeometry>
        </mxCell>
        <mxCell id="3xNHF6fkVYd2pbTYoH_k-50" value="Посмотреть статистику по заказам" style="ellipse;whiteSpace=wrap;html=1;" vertex="1" parent="1">
          <mxGeometry x="452" y="380" width="96" height="50" as="geometry" />
        </mxCell>
        <mxCell id="3xNHF6fkVYd2pbTYoH_k-53" value="include" style="endArrow=open;endSize=12;dashed=1;html=1;rounded=0;exitX=1;exitY=0.5;exitDx=0;exitDy=0;entryX=1;entryY=0.5;entryDx=0;entryDy=0;" edge="1" parent="1" source="3xNHF6fkVYd2pbTYoH_k-50" target="3xNHF6fkVYd2pbTYoH_k-3">
          <mxGeometry width="160" relative="1" as="geometry">
            <mxPoint x="710" y="462.5" as="sourcePoint" />
            <mxPoint x="700" y="217.5" as="targetPoint" />
            <Array as="points">
              <mxPoint x="570" y="405" />
              <mxPoint x="570" y="215" />
            </Array>
          </mxGeometry>
        </mxCell>
        <mxCell id="3xNHF6fkVYd2pbTYoH_k-54" value="" style="endArrow=none;html=1;rounded=0;" edge="1" parent="1">
          <mxGeometry width="50" height="50" relative="1" as="geometry">
            <mxPoint x="540" y="340" as="sourcePoint" />
            <mxPoint x="620" y="340" as="targetPoint" />
          </mxGeometry>
        </mxCell>
        <mxCell id="3xNHF6fkVYd2pbTYoH_k-56" value="" style="endArrow=none;html=1;rounded=0;" edge="1" parent="1" target="3xNHF6fkVYd2pbTYoH_k-2">
          <mxGeometry width="50" height="50" relative="1" as="geometry">
            <mxPoint x="540" y="390" as="sourcePoint" />
            <mxPoint x="590" y="340" as="targetPoint" />
          </mxGeometry>
        </mxCell>
        <mxCell id="3xNHF6fkVYd2pbTYoH_k-57" value="Система" style="shape=umlActor;verticalLabelPosition=bottom;verticalAlign=top;html=1;outlineConnect=0;" vertex="1" parent="1">
          <mxGeometry x="630" y="500" width="30" height="60" as="geometry" />
        </mxCell>
        <mxCell id="3xNHF6fkVYd2pbTYoH_k-58" value="Отобразить статус заказа" style="ellipse;whiteSpace=wrap;html=1;" vertex="1" parent="1">
          <mxGeometry x="460" y="520" width="92" height="40" as="geometry" />
        </mxCell>
        <mxCell id="3xNHF6fkVYd2pbTYoH_k-61" value="" style="endArrow=none;html=1;rounded=0;" edge="1" parent="1" target="3xNHF6fkVYd2pbTYoH_k-57">
          <mxGeometry width="50" height="50" relative="1" as="geometry">
            <mxPoint x="550" y="540" as="sourcePoint" />
            <mxPoint x="600" y="490" as="targetPoint" />
          </mxGeometry>
        </mxCell>
        <mxCell id="3xNHF6fkVYd2pbTYoH_k-62" value="" style="endArrow=none;html=1;rounded=0;fillColor=#ffe6cc;strokeColor=#d79b00;" edge="1" parent="1">
          <mxGeometry width="50" height="50" relative="1" as="geometry">
            <mxPoint x="130" y="90" as="sourcePoint" />
            <mxPoint x="130" y="90" as="targetPoint" />
            <Array as="points">
              <mxPoint x="130" y="600" />
              <mxPoint x="600" y="600" />
              <mxPoint x="600" y="90" />
            </Array>
          </mxGeometry>
        </mxCell>
      </root>
    </mxGraphModel>
  </diagram>
</mxfile>
